<?xml version="1.0" encoding="UTF-8"?>
<svg width="307px" height="47px" viewBox="0 0 307 47" version="1.1" xmlns="http://www.w3.org/2000/svg" xmlns:xlink="http://www.w3.org/1999/xlink">
    <!-- Generator: Sketch 48.2 (47327) - http://www.bohemiancoding.com/sketch -->
    <title>red-white copy</title>
    <desc>Created with Sketch.</desc>
    <defs></defs>
    <g id="Page-1" stroke="none" stroke-width="1" fill="none" fill-rule="evenodd">
        <g id="red-white-copy" transform="translate(-13.000000, -15.000000)">
            <text id="EMOJI-FINDER" font-family="NeoSans-BlackItalic, NeoSans" font-size="36" font-style="italic" font-weight="700" fill="#FFFFFF">
                <tspan x="77.328" y="49">EMOJI FINDER</tspan>
            </text>
            <g id="smiling-emoticon-square-face" transform="translate(12.000000, 15.000000)" fill="#E44A5D" fill-rule="nonzero">
                <path d="M4.445,6.322 C4.445,2.899 7.222,0.121 10.646,0.121 C14.069,0.121 16.846,2.898 16.846,6.322 C16.846,9.748 14.069,12.525 10.646,12.525 C7.222,12.524 4.445,9.748 4.445,6.322 Z M32.562,6.322 C32.562,2.899 35.342,0.121 38.765,0.121 C42.188,0.121 44.966,2.898 44.966,6.322 C44.966,9.748 42.189,12.525 38.765,12.525 C35.343,12.524 32.562,9.748 32.562,6.322 Z M47.223,31.72 C43.38,40.607 34.38,46.349 24.294,46.349 C13.993,46.349 4.94,40.578 1.23,31.646 C0.594,30.116 1.319,28.36 2.85,27.724 C3.226,27.569 3.616,27.495 4,27.495 C5.176,27.495 6.292,28.191 6.771,29.346 C9.548,36.031 16.426,40.35 24.294,40.35 C31.984,40.35 38.822,36.028 41.715,29.338 C42.373,27.817 44.139,27.116 45.658,27.776 C47.181,28.433 47.881,30.199 47.223,31.72 Z" id="Shape"></path>
            </g>
        </g>
    </g>
</svg>