<svg width="249" height="47" xmlns="http://www.w3.org/2000/svg">
  <g fill="none" fill-rule="evenodd">
    <text font-family="MarkerFelt-Wide, Marker Felt" font-size="36" font-weight="bold" fill="#FFF" transform="translate(-24 -15)">
      <tspan x="83.068" y="51">emoji finder</tspan>
    </text>
    <path d="M3.445 6.322a6.202 6.202 0 1 1 12.399.001 6.202 6.202 0 0 1-12.399-.001zm28.117 0a6.203 6.203 0 1 1 6.203 6.203 6.206 6.206 0 0 1-6.203-6.203zM46.223 31.72C42.38 40.607 33.38 46.349 23.294 46.349 12.993 46.349 3.94 40.578.23 31.646a3 3 0 1 1 5.541-2.3c2.777 6.685 9.655 11.004 17.523 11.004 7.69 0 14.528-4.322 17.421-11.012a2.997 2.997 0 0 1 3.943-1.562 2.998 2.998 0 0 1 1.565 3.944z" fill="#E44A5D" fill-rule="nonzero"/>
  </g>
</svg>